<svg width="28" height="28" viewBox="0 0 28 28" fill="none" xmlns="http://www.w3.org/2000/svg">
<circle cx="14.0001" cy="14.0001" r="12.4444" fill="#132F4C"/>
<mask id="mask0_259_3887" style="mask-type:alpha" maskUnits="userSpaceOnUse" x="12" y="10" width="11" height="12">
<path d="M18.2538 10.303C17.6594 9.96336 16.9297 9.96336 16.3354 10.303L13.1011 12.1512C12.4987 12.4954 12.127 13.136 12.127 13.8298V17.4917C12.127 18.1855 12.4987 18.8261 13.1011 19.1703L16.3353 21.0185C16.9297 21.3581 17.6594 21.3581 18.2537 21.0185L21.488 19.1703C22.0904 18.8261 22.4622 18.1855 22.4622 17.4917V13.8298C22.4622 13.136 22.0904 12.4954 21.488 12.1512L18.2538 10.303Z" fill="#D7DCE1"/>
</mask>
<g mask="url(#mask0_259_3887)">
<path d="M17.2939 21.5663V15.6604L22.4616 12.7075V18.6134L17.2939 21.5663Z" fill="#007FFF"/>
<path d="M12.127 18.6134V12.7075L17.2946 15.6604V21.5663L12.127 18.6134Z" fill="#3399FF"/>
<path d="M12.127 12.7078L17.2946 9.75488L22.4622 12.7078L17.2946 15.6607L12.127 12.7078Z" fill="#99CCF3"/>
</g>
<mask id="mask1_259_3887" style="mask-type:alpha" maskUnits="userSpaceOnUse" x="6" y="13" width="11" height="12">
<path d="M6.22266 17.152C6.22266 16.4582 6.59441 15.8176 7.19679 15.4734L10.4311 13.6253C11.0254 13.2856 11.7551 13.2856 12.3495 13.6253L15.5837 15.4734C16.1861 15.8176 16.5579 16.4582 16.5579 17.152V20.8139C16.5579 21.5077 16.1861 22.1483 15.5837 22.4925L12.3495 24.3407C11.7551 24.6803 11.0254 24.6803 10.4311 24.3407L7.19679 22.4925C6.59441 22.1483 6.22266 21.5077 6.22266 20.8139V17.152Z" fill="#D7DCE1"/>
</mask>
<g mask="url(#mask1_259_3887)">
<path d="M11.3896 24.8885V18.9827L16.5573 16.0298V21.9356L11.3896 24.8885Z" fill="#007FFF"/>
<path d="M6.22266 21.9356V16.0298L11.3903 18.9827V24.8885L6.22266 21.9356Z" fill="#3399FF"/>
<path d="M6.22266 16.0301L11.3903 13.0771L16.5579 16.0301L11.3903 18.983L6.22266 16.0301Z" fill="#99CCF3"/>
</g>
<mask id="mask2_259_3887" style="mask-type:alpha" maskUnits="userSpaceOnUse" x="6" y="3" width="17" height="15">
<path d="M18.2503 3.65667C17.6581 3.31826 16.9314 3.31695 16.338 3.65323L7.20186 8.83036C6.59608 9.17363 6.22168 9.81613 6.22168 10.5124V14.1697C6.22168 14.8635 6.59343 15.5041 7.19581 15.8483L10.4341 17.6987C11.0263 18.0371 11.753 18.0384 12.3464 17.7021L21.4825 12.525C22.0883 12.1818 22.4627 11.5393 22.4627 10.843V7.18572C22.4627 6.49193 22.091 5.85133 21.4886 5.50712L18.2503 3.65667Z" fill="#D7DCE1"/>
</mask>
<g mask="url(#mask2_259_3887)">
<path d="M11.3896 18.2448V12.3389L22.4631 6.06396V11.9698L11.3896 18.2448Z" fill="#007FFF"/>
<path d="M6.22266 15.2921V9.38623L11.3903 12.3391V18.245L6.22266 15.2921Z" fill="#3399FF"/>
<path d="M6.22266 9.38628L17.2961 3.11133L22.4637 6.06425L11.3903 12.3392L6.22266 9.38628Z" fill="#99CCF3"/>
</g>
</svg>
