<svg width="37" height="36" viewBox="0 0 37 36" fill="none" xmlns="http://www.w3.org/2000/svg">
<circle cx="18.5" cy="18" r="16" fill="#EAEEF3"/>
<mask id="mask0_997_58245" style="mask-type:alpha" maskUnits="userSpaceOnUse" x="15" y="12" width="14" height="16">
<path d="M23.6766 13.3652C22.7851 12.8557 21.6906 12.8557 20.799 13.3651L17.0549 15.5046C16.1514 16.0209 15.5938 16.9818 15.5938 18.0225V22.2499C15.5938 23.2906 16.1514 24.2515 17.0549 24.7678L20.799 26.9073C21.6905 27.4167 22.785 27.4167 23.6766 26.9073L27.4207 24.7678C28.3242 24.2515 28.8819 23.2906 28.8819 22.2499V18.0225C28.8819 16.9818 28.3242 16.021 27.4207 15.5046L23.6766 13.3652Z" fill="#D7DCE1"/>
</mask>
<g mask="url(#mask0_997_58245)">
<path d="M22.2383 27.7297V20.1365L28.8823 16.3398V23.9331L22.2383 27.7297Z" fill="#F48802"/>
<path d="M15.5938 23.9331V16.3398L22.2378 20.1365V27.7297L15.5938 23.9331Z" fill="#F9A326"/>
<path d="M15.5938 16.3396L22.2378 12.543L28.8819 16.3396L22.2378 20.1362L15.5938 16.3396Z" fill="#FBC97F"/>
</g>
<mask id="mask1_997_58245" style="mask-type:alpha" maskUnits="userSpaceOnUse" x="8" y="17" width="14" height="15">
<path d="M8 22.292C8 21.2514 8.55763 20.2905 9.4612 19.7741L13.2053 17.6347C14.0968 17.1252 15.1913 17.1252 16.0829 17.6347L19.8269 19.7741C20.7305 20.2905 21.2881 21.2514 21.2881 22.292V26.5194C21.2881 27.5601 20.7305 28.521 19.8269 29.0373L16.0829 31.1768C15.1913 31.6862 14.0968 31.6862 13.2053 31.1768L9.4612 29.0373C8.55763 28.521 8 27.5601 8 26.5194V22.292Z" fill="#D7DCE1"/>
</mask>
<g mask="url(#mask1_997_58245)">
<path d="M14.6445 31.9992V24.406L21.2886 20.6094V28.2026L14.6445 31.9992Z" fill="#F48802"/>
<path d="M8 28.2026V20.6094L14.6441 24.406V31.9992L8 28.2026Z" fill="#F9A326"/>
<path d="M8 20.6091L14.6441 16.8125L21.2881 20.6091L14.6441 24.4057L8 20.6091Z" fill="#FBC97F"/>
</g>
<mask id="mask2_997_58245" style="mask-type:alpha" maskUnits="userSpaceOnUse" x="8" y="4" width="21" height="20">
<path d="M23.6701 4.81875C22.7818 4.31113 21.6917 4.30917 20.8015 4.81359L9.47026 11.2346C8.5616 11.7496 8 12.7133 8 13.7577V17.9781C8 19.0188 8.55763 19.9797 9.4612 20.496L13.2112 22.6389C14.0996 23.1465 15.1896 23.1484 16.0798 22.644L27.4111 16.223C28.3197 15.7081 28.8813 14.7443 28.8813 13.6999V9.47955C28.8813 8.43887 28.3237 7.47797 27.4201 6.96164L23.6701 4.81875Z" fill="#D7DCE1"/>
</mask>
<g mask="url(#mask2_997_58245)">
<path d="M14.6445 23.4579V15.8647L28.8818 7.79688V15.3901L14.6445 23.4579Z" fill="#F48802"/>
<path d="M8 19.6596V12.0664L14.6441 15.863V23.4562L8 19.6596Z" fill="#F9A326"/>
<path d="M8 12.0678L22.2373 4L28.8814 7.79661L14.6441 15.8644L8 12.0678Z" fill="#FBC97F"/>
</g>
</svg>
