<svg width="360" height="200" viewBox="0 0 360 200" fill="none" xmlns="http://www.w3.org/2000/svg">
<rect width="360" height="200" fill="#001E3C"/>
<rect width="360" height="200" fill="url(#paint0_linear_1145_33209)"/>
<rect x="10" y="10" width="340" height="20" rx="10" fill="url(#paint1_linear_1145_33209)"/>
<rect x="29" y="17" width="72" height="5" rx="2.5" fill="#C2E0FF"/>
<circle cx="20" cy="20" r="5" fill="#C2E0FF"/>
<rect x="10" y="38" width="84" height="152" rx="10" fill="url(#paint2_linear_1145_33209)"/>
<line x1="20" y1="46.5" x2="84" y2="46.5" stroke="#F3F6F9" stroke-width="3"/>
<line x1="20" y1="58.5" x2="84" y2="58.5" stroke="#F3F6F9" stroke-width="3"/>
<rect x="19.5" y="72.5" width="64" height="11" rx="5.5" fill="#F3F6F9" stroke="#EAEEF3"/>
<line x1="20" y1="94.5" x2="84" y2="94.5" stroke="#F3F6F9" stroke-width="3"/>
<line x1="20" y1="106.5" x2="84" y2="106.5" stroke="#F3F6F9" stroke-width="3"/>
<line x1="20" y1="118.5" x2="84" y2="118.5" stroke="#F3F6F9" stroke-width="3"/>
<line x1="20" y1="130.5" x2="84" y2="130.5" stroke="#F3F6F9" stroke-width="3"/>
<line x1="20" y1="142.5" x2="84" y2="142.5" stroke="#F3F6F9" stroke-width="3"/>
<line x1="20" y1="154.5" x2="84" y2="154.5" stroke="#F3F6F9" stroke-width="3"/>
<line x1="20" y1="166.5" x2="84" y2="166.5" stroke="#F3F6F9" stroke-width="3"/>
<line x1="20" y1="178.5" x2="84" y2="178.5" stroke="#F3F6F9" stroke-width="3"/>
<rect x="102" y="38" width="208" height="152" rx="10" fill="url(#paint3_linear_1145_33209)"/>
<rect x="112.5" y="72.5" width="187" height="77" rx="9.5" fill="#F3F6F9" stroke="#EAEEF3"/>
<rect x="112.5" y="48.5" width="127" height="7" rx="3.5" fill="#F3F6F9" stroke="#EAEEF3"/>
<rect x="112.5" y="60.5" width="127" height="7" rx="3.5" fill="#F3F6F9" stroke="#EAEEF3"/>
<rect x="112.5" y="154.5" width="59" height="7" rx="3.5" fill="#F3F6F9" stroke="#EAEEF3"/>
<rect x="176.5" y="154.5" width="59" height="7" rx="3.5" fill="#F3F6F9" stroke="#EAEEF3"/>
<rect x="240.5" y="154.5" width="59" height="7" rx="3.5" fill="#F3F6F9" stroke="#EAEEF3"/>
<rect x="244.5" y="48.5" width="7" height="7" rx="3.5" fill="#F3F6F9" stroke="#EAEEF3"/>
<rect x="256.5" y="48.5" width="7" height="7" rx="3.5" fill="#F3F6F9" stroke="#EAEEF3"/>
<rect x="268.5" y="48.5" width="7" height="7" rx="3.5" fill="#F3F6F9" stroke="#EAEEF3"/>
<rect x="280.5" y="48.5" width="7" height="7" rx="3.5" fill="#F3F6F9" stroke="#EAEEF3"/>
<rect x="292.5" y="48.5" width="7" height="7" rx="3.5" fill="#F3F6F9" stroke="#EAEEF3"/>
<rect x="244.5" y="60.5" width="7" height="7" rx="3.5" fill="#F3F6F9" stroke="#EAEEF3"/>
<rect x="256.5" y="60.5" width="7" height="7" rx="3.5" fill="#F3F6F9" stroke="#EAEEF3"/>
<rect x="268.5" y="60.5" width="7" height="7" rx="3.5" fill="#F3F6F9" stroke="#EAEEF3"/>
<rect x="280.5" y="60.5" width="7" height="7" rx="3.5" fill="#F3F6F9" stroke="#EAEEF3"/>
<rect x="292.5" y="60.5" width="7" height="7" rx="3.5" fill="#F3F6F9" stroke="#EAEEF3"/>
<rect x="276" y="172" width="24" height="8" rx="4" fill="#007FFF"/>
<rect x="248.5" y="172.5" width="23" height="7" rx="3.5" fill="#C2E0FF" stroke="#007FFF"/>
<rect x="318" y="38" width="32" height="32" rx="10" fill="url(#paint4_linear_1145_33209)"/>
<rect x="325" y="45" width="18" height="18" rx="9" fill="#C2E0FF"/>
<rect x="318" y="78" width="32" height="32" rx="10" fill="url(#paint5_linear_1145_33209)"/>
<rect x="325" y="85" width="18" height="18" rx="9" fill="url(#paint6_linear_1145_33209)"/>
<rect x="318" y="118" width="32" height="32" rx="10" fill="url(#paint7_linear_1145_33209)"/>
<rect x="325" y="125" width="18" height="18" rx="9" fill="#C2E0FF"/>
<rect x="318" y="158" width="32" height="32" rx="10" fill="url(#paint8_linear_1145_33209)"/>
<rect x="325" y="165" width="18" height="18" rx="9" fill="#C2E0FF"/>
<defs>
<linearGradient id="paint0_linear_1145_33209" x1="-8" y1="212" x2="320.665" y2="204.503" gradientUnits="userSpaceOnUse">
<stop stop-color="#66B2FF"/>
<stop offset="1" stop-color="#007FFF"/>
</linearGradient>
<linearGradient id="paint1_linear_1145_33209" x1="180" y1="10" x2="180" y2="30" gradientUnits="userSpaceOnUse">
<stop stop-color="white"/>
<stop offset="1" stop-color="#F3F6F9"/>
</linearGradient>
<linearGradient id="paint2_linear_1145_33209" x1="52" y1="38" x2="52" y2="190" gradientUnits="userSpaceOnUse">
<stop stop-color="white"/>
<stop offset="1" stop-color="#F3F6F9"/>
</linearGradient>
<linearGradient id="paint3_linear_1145_33209" x1="206" y1="38" x2="206" y2="190" gradientUnits="userSpaceOnUse">
<stop stop-color="white"/>
<stop offset="1" stop-color="#F3F6F9"/>
</linearGradient>
<linearGradient id="paint4_linear_1145_33209" x1="334" y1="38" x2="334" y2="70" gradientUnits="userSpaceOnUse">
<stop stop-color="white"/>
<stop offset="1" stop-color="#F3F6F9"/>
</linearGradient>
<linearGradient id="paint5_linear_1145_33209" x1="334" y1="78" x2="334" y2="110" gradientUnits="userSpaceOnUse">
<stop stop-color="white"/>
<stop offset="1" stop-color="#F3F6F9"/>
</linearGradient>
<linearGradient id="paint6_linear_1145_33209" x1="343" y1="103" x2="325" y2="85" gradientUnits="userSpaceOnUse">
<stop stop-color="#0059B3"/>
<stop offset="1" stop-color="#007FFF"/>
</linearGradient>
<linearGradient id="paint7_linear_1145_33209" x1="334" y1="118" x2="334" y2="150" gradientUnits="userSpaceOnUse">
<stop stop-color="white"/>
<stop offset="1" stop-color="#F3F6F9"/>
</linearGradient>
<linearGradient id="paint8_linear_1145_33209" x1="334" y1="158" x2="334" y2="190" gradientUnits="userSpaceOnUse">
<stop stop-color="white"/>
<stop offset="1" stop-color="#F3F6F9"/>
</linearGradient>
</defs>
</svg>
