<svg width="360" height="200" viewBox="0 0 360 200" fill="none" xmlns="http://www.w3.org/2000/svg">
<rect width="360" height="200" fill="#001E3C"/>
<rect width="360" height="200" fill="url(#paint0_linear_1125_33715)"/>
<rect x="10" y="10" width="340" height="20" rx="10" fill="url(#paint1_linear_1125_33715)"/>
<rect x="29" y="17" width="72" height="5" rx="2.5" fill="#FBC97F"/>
<circle cx="20" cy="20" r="5" fill="#FBC97F"/>
<rect x="10" y="38" width="84" height="152" rx="10" fill="url(#paint2_linear_1125_33715)"/>
<line x1="20" y1="46.5" x2="84" y2="46.5" stroke="#F3F6F9" stroke-width="3"/>
<line x1="20" y1="58.5" x2="84" y2="58.5" stroke="#F3F6F9" stroke-width="3"/>
<rect x="19.5" y="72.5" width="64" height="11" rx="5.5" fill="#F3F6F9" stroke="#EAEEF3"/>
<line x1="20" y1="94.5" x2="84" y2="94.5" stroke="#F3F6F9" stroke-width="3"/>
<line x1="20" y1="106.5" x2="84" y2="106.5" stroke="#F3F6F9" stroke-width="3"/>
<line x1="20" y1="118.5" x2="84" y2="118.5" stroke="#F3F6F9" stroke-width="3"/>
<line x1="20" y1="130.5" x2="84" y2="130.5" stroke="#F3F6F9" stroke-width="3"/>
<line x1="20" y1="142.5" x2="84" y2="142.5" stroke="#F3F6F9" stroke-width="3"/>
<line x1="20" y1="154.5" x2="84" y2="154.5" stroke="#F3F6F9" stroke-width="3"/>
<line x1="20" y1="166.5" x2="84" y2="166.5" stroke="#F3F6F9" stroke-width="3"/>
<line x1="20" y1="178.5" x2="84" y2="178.5" stroke="#F3F6F9" stroke-width="3"/>
<rect x="102" y="38" width="208" height="152" rx="10" fill="url(#paint3_linear_1125_33715)"/>
<rect x="112.5" y="72.5" width="187" height="77" rx="9.5" fill="#F3F6F9" stroke="#EAEEF3"/>
<rect x="112.5" y="48.5" width="127" height="7" rx="3.5" fill="#F3F6F9" stroke="#EAEEF3"/>
<rect x="112.5" y="60.5" width="127" height="7" rx="3.5" fill="#F3F6F9" stroke="#EAEEF3"/>
<rect x="112.5" y="154.5" width="59" height="7" rx="3.5" fill="#F3F6F9" stroke="#EAEEF3"/>
<rect x="176.5" y="154.5" width="59" height="7" rx="3.5" fill="#F3F6F9" stroke="#EAEEF3"/>
<rect x="240.5" y="154.5" width="59" height="7" rx="3.5" fill="#F3F6F9" stroke="#EAEEF3"/>
<rect x="244.5" y="48.5" width="7" height="7" rx="3.5" fill="#F3F6F9" stroke="#EAEEF3"/>
<rect x="256.5" y="48.5" width="7" height="7" rx="3.5" fill="#F3F6F9" stroke="#EAEEF3"/>
<rect x="268.5" y="48.5" width="7" height="7" rx="3.5" fill="#F3F6F9" stroke="#EAEEF3"/>
<rect x="280.5" y="48.5" width="7" height="7" rx="3.5" fill="#F3F6F9" stroke="#EAEEF3"/>
<rect x="292.5" y="48.5" width="7" height="7" rx="3.5" fill="#F3F6F9" stroke="#EAEEF3"/>
<rect x="244.5" y="60.5" width="7" height="7" rx="3.5" fill="#F3F6F9" stroke="#EAEEF3"/>
<rect x="256.5" y="60.5" width="7" height="7" rx="3.5" fill="#F3F6F9" stroke="#EAEEF3"/>
<rect x="268.5" y="60.5" width="7" height="7" rx="3.5" fill="#F3F6F9" stroke="#EAEEF3"/>
<rect x="280.5" y="60.5" width="7" height="7" rx="3.5" fill="#F3F6F9" stroke="#EAEEF3"/>
<rect x="292.5" y="60.5" width="7" height="7" rx="3.5" fill="#F3F6F9" stroke="#EAEEF3"/>
<rect x="276" y="172" width="24" height="8" rx="4" fill="#E67E00"/>
<rect x="248.5" y="172.5" width="23" height="7" rx="3.5" fill="#FBC97F" stroke="#E67E00"/>
<rect x="318" y="38" width="32" height="32" rx="10" fill="url(#paint4_linear_1125_33715)"/>
<rect x="325" y="45" width="18" height="18" rx="9" fill="#FBC97F"/>
<rect x="318" y="78" width="32" height="32" rx="10" fill="url(#paint5_linear_1125_33715)"/>
<rect x="325" y="85" width="18" height="18" rx="9" fill="url(#paint6_linear_1125_33715)"/>
<rect x="318" y="118" width="32" height="32" rx="10" fill="url(#paint7_linear_1125_33715)"/>
<rect x="325" y="125" width="18" height="18" rx="9" fill="#FBC97F"/>
<rect x="318" y="158" width="32" height="32" rx="10" fill="url(#paint8_linear_1125_33715)"/>
<rect x="325" y="165" width="18" height="18" rx="9" fill="#FBC97F"/>
<defs>
<linearGradient id="paint0_linear_1125_33715" x1="290.5" y1="-23.5" x2="280.119" y2="195.741" gradientUnits="userSpaceOnUse">
<stop offset="0.0134889" stop-color="#F48802"/>
<stop offset="1" stop-color="#F9A326"/>
</linearGradient>
<linearGradient id="paint1_linear_1125_33715" x1="180" y1="10" x2="180" y2="30" gradientUnits="userSpaceOnUse">
<stop stop-color="white"/>
<stop offset="1" stop-color="#F3F6F9"/>
</linearGradient>
<linearGradient id="paint2_linear_1125_33715" x1="52" y1="38" x2="52" y2="190" gradientUnits="userSpaceOnUse">
<stop stop-color="white"/>
<stop offset="1" stop-color="#F3F6F9"/>
</linearGradient>
<linearGradient id="paint3_linear_1125_33715" x1="206" y1="38" x2="206" y2="190" gradientUnits="userSpaceOnUse">
<stop stop-color="white"/>
<stop offset="1" stop-color="#F3F6F9"/>
</linearGradient>
<linearGradient id="paint4_linear_1125_33715" x1="334" y1="38" x2="334" y2="70" gradientUnits="userSpaceOnUse">
<stop stop-color="white"/>
<stop offset="1" stop-color="#F3F6F9"/>
</linearGradient>
<linearGradient id="paint5_linear_1125_33715" x1="334" y1="78" x2="334" y2="110" gradientUnits="userSpaceOnUse">
<stop stop-color="white"/>
<stop offset="1" stop-color="#F3F6F9"/>
</linearGradient>
<linearGradient id="paint6_linear_1125_33715" x1="328.052" y1="90.5688" x2="341.195" y2="91.4807" gradientUnits="userSpaceOnUse">
<stop stop-color="#F48802"/>
<stop offset="1" stop-color="#F9A326"/>
</linearGradient>
<linearGradient id="paint7_linear_1125_33715" x1="334" y1="118" x2="334" y2="150" gradientUnits="userSpaceOnUse">
<stop stop-color="white"/>
<stop offset="1" stop-color="#F3F6F9"/>
</linearGradient>
<linearGradient id="paint8_linear_1125_33715" x1="334" y1="158" x2="334" y2="190" gradientUnits="userSpaceOnUse">
<stop stop-color="white"/>
<stop offset="1" stop-color="#F3F6F9"/>
</linearGradient>
</defs>
</svg>
