<svg width="360" height="200" viewBox="0 0 360 200" fill="none" xmlns="http://www.w3.org/2000/svg">
<rect width="360" height="200" fill="#001E3C"/>
<rect width="360" height="200" fill="url(#paint0_linear_1145_33320)"/>
<rect x="10" y="10" width="44" height="180" rx="10" fill="url(#paint1_linear_1145_33320)"/>
<rect x="29" y="18" width="20" height="5" rx="2.5" fill="#F3F6F9"/>
<circle cx="21" cy="21" r="6" fill="#F3F6F9"/>
<line x1="15" y1="36.5" x2="49" y2="36.5" stroke="#F3F6F9"/>
<line x1="15" y1="46.5" x2="49" y2="46.5" stroke="#F3F6F9"/>
<line x1="15" y1="56.5" x2="49" y2="56.5" stroke="#F3F6F9"/>
<line x1="15" y1="66.5" x2="49" y2="66.5" stroke="#F3F6F9"/>
<line x1="15" y1="76.5" x2="49" y2="76.5" stroke="#F3F6F9"/>
<line x1="15" y1="86.5" x2="49" y2="86.5" stroke="#F3F6F9"/>
<line x1="15" y1="96.5" x2="49" y2="96.5" stroke="#F3F6F9"/>
<line x1="15" y1="106.5" x2="49" y2="106.5" stroke="#F3F6F9"/>
<line x1="15" y1="116.5" x2="49" y2="116.5" stroke="#F3F6F9"/>
<line x1="15" y1="126.5" x2="49" y2="126.5" stroke="#F3F6F9"/>
<line x1="15" y1="136.5" x2="49" y2="136.5" stroke="#F3F6F9"/>
<path d="M32 158C26.48 158 22 162.48 22 168C22 173.52 26.48 178 32 178C37.52 178 42 173.52 42 168C42 162.48 37.52 158 32 158ZM37 168C37 168.552 36.5523 169 36 169H33V172C33 172.552 32.5523 173 32 173C31.4477 173 31 172.552 31 172V169H28C27.4477 169 27 168.552 27 168C27 167.448 27.4477 167 28 167H31V164C31 163.448 31.4477 163 32 163C32.5523 163 33 163.448 33 164V167H36C36.5523 167 37 167.448 37 168Z" fill="#C2E0FF"/>
<rect x="62" y="10" width="66" height="20" rx="10" fill="url(#paint2_linear_1145_33320)"/>
<circle cx="72.5508" cy="20" r="6" fill="#C2E0FF"/>
<rect x="136" y="10" width="66" height="20" rx="10" fill="url(#paint3_linear_1145_33320)"/>
<circle cx="146.551" cy="20" r="6" fill="#007FFF"/>
<rect x="210" y="10" width="66" height="20" rx="10" fill="url(#paint4_linear_1145_33320)"/>
<circle cx="220.551" cy="20" r="6" fill="#C2E0FF"/>
<rect x="284" y="10" width="66" height="20" rx="10" fill="url(#paint5_linear_1145_33320)"/>
<circle cx="294.551" cy="20" r="6" fill="#C2E0FF"/>
<rect x="62" y="38" width="177" height="89" rx="10" fill="url(#paint6_linear_1145_33320)"/>
<path d="M106.39 78.3079L72 117H229V48L191.705 80.3442C190.423 81.4564 188.878 82.2238 187.218 82.5742L153.671 89.651C151.61 90.0859 149.464 89.8585 147.539 89.0014L117.933 75.8162C113.953 74.0439 109.284 75.0518 106.39 78.3079Z" fill="#F0F7FF"/>
<path d="M71.7793 117L106.285 78.2871C109.177 75.0418 113.835 74.0371 117.809 75.8016L147.546 89.0081C149.467 89.861 151.607 90.0872 153.663 89.6546L187.332 82.5719C188.991 82.223 190.533 81.4584 191.815 80.3498L229.221 48" stroke="#C2E0FF" stroke-width="3" stroke-linecap="round"/>
<rect x="247" y="38" width="103" height="89" rx="10" fill="url(#paint7_linear_1145_33320)"/>
<path fill-rule="evenodd" clip-rule="evenodd" d="M299.001 121V95.9764L254.152 95.9765V112C254.152 116.971 258.182 121 263.152 121H299.001ZM300.001 122H299.001H263.152C257.629 122 253.152 117.523 253.152 112V95.9765V94.9765V69.953V68.953V53C253.152 47.4772 257.629 43 263.152 43H299.001H300.001H334.849C340.372 43 344.849 47.4772 344.849 53V68.953V69.953V94.9764V95.9764V112C344.849 117.523 340.372 122 334.849 122H300.001ZM343.849 95.9764V112C343.849 116.971 339.82 121 334.849 121H300.001V95.9764L343.849 95.9764ZM343.849 94.9764V69.953L300.001 69.953L300.001 94.9764L343.849 94.9764ZM343.849 68.953V53C343.849 48.0294 339.82 44 334.849 44H300.001V68.953L343.849 68.953ZM299.001 44H263.152C258.182 44 254.152 48.0294 254.152 53V68.953L299.001 68.953V44ZM254.152 69.953V94.9765L299.001 94.9764L299.001 69.953L254.152 69.953Z" fill="#C2E0FF"/>
<rect x="62" y="135" width="103" height="55" rx="10" fill="url(#paint8_linear_1145_33320)"/>
<line x1="69.5" y1="147.5" x2="157.5" y2="147.5" stroke="#EAEEF3" stroke-width="5" stroke-linecap="round"/>
<line x1="69.5" y1="147.5" x2="144.932" y2="147.5" stroke="url(#paint9_linear_1145_33320)" stroke-width="5" stroke-linecap="round"/>
<line x1="69.5" y1="162.5" x2="157.5" y2="162.5" stroke="#EAEEF3" stroke-width="5" stroke-linecap="round"/>
<line x1="69.5" y1="162.5" x2="101.365" y2="162.5" stroke="url(#paint10_linear_1145_33320)" stroke-width="5" stroke-linecap="round"/>
<line x1="69.5" y1="177.5" x2="157.5" y2="177.5" stroke="#EAEEF3" stroke-width="5" stroke-linecap="round"/>
<line x1="69.5" y1="177.5" x2="123.986" y2="177.5" stroke="url(#paint11_linear_1145_33320)" stroke-width="5" stroke-linecap="round"/>
<rect x="173" y="135" width="177" height="55" rx="10" fill="url(#paint12_linear_1145_33320)"/>
<path d="M173 145C173 139.477 177.477 135 183 135H340C345.523 135 350 139.477 350 145V151H173V145Z" fill="#F0F7FF"/>
<path d="M208.684 158.23V161.688H206.856V158.23H208.684ZM208.462 177.367V180.52H206.634V177.367H208.462ZM209.751 173.523C209.751 173.078 209.669 172.699 209.505 172.387C209.348 172.074 209.091 171.797 208.731 171.555C208.38 171.312 207.903 171.078 207.302 170.852C206.286 170.461 205.391 170.047 204.618 169.609C203.852 169.164 203.255 168.613 202.825 167.957C202.395 167.293 202.18 166.453 202.18 165.438C202.18 164.469 202.411 163.629 202.872 162.918C203.333 162.207 203.969 161.66 204.782 161.277C205.602 160.887 206.555 160.691 207.641 160.691C208.469 160.691 209.219 160.816 209.891 161.066C210.563 161.309 211.141 161.668 211.626 162.145C212.11 162.613 212.481 163.188 212.739 163.867C212.997 164.547 213.126 165.324 213.126 166.199H209.762C209.762 165.73 209.712 165.316 209.61 164.957C209.509 164.598 209.36 164.297 209.165 164.055C208.977 163.812 208.751 163.633 208.485 163.516C208.219 163.391 207.927 163.328 207.606 163.328C207.13 163.328 206.739 163.422 206.434 163.609C206.13 163.797 205.907 164.051 205.766 164.371C205.634 164.684 205.567 165.043 205.567 165.449C205.567 165.848 205.637 166.195 205.778 166.492C205.927 166.789 206.18 167.062 206.54 167.312C206.899 167.555 207.391 167.805 208.016 168.062C209.032 168.453 209.923 168.875 210.688 169.328C211.454 169.781 212.052 170.336 212.481 170.992C212.911 171.648 213.126 172.484 213.126 173.5C213.126 174.508 212.891 175.367 212.423 176.078C211.954 176.781 211.298 177.32 210.454 177.695C209.61 178.062 208.634 178.246 207.524 178.246C206.805 178.246 206.091 178.152 205.38 177.965C204.669 177.77 204.024 177.457 203.446 177.027C202.868 176.598 202.407 176.027 202.063 175.316C201.719 174.598 201.548 173.715 201.548 172.668H204.923C204.923 173.238 204.997 173.715 205.145 174.098C205.294 174.473 205.489 174.773 205.731 175C205.981 175.219 206.262 175.375 206.575 175.469C206.887 175.562 207.204 175.609 207.524 175.609C208.024 175.609 208.434 175.52 208.755 175.34C209.083 175.16 209.329 174.914 209.493 174.602C209.665 174.281 209.751 173.922 209.751 173.523ZM223.649 160.902V178H220.274V164.793L216.219 166.082V163.422L223.286 160.902H223.649ZM232.544 175.152L232.532 177.414C232.532 178.281 232.313 179.156 231.876 180.039C231.446 180.922 230.899 181.645 230.235 182.207L228.477 181.305C228.673 180.945 228.864 180.586 229.052 180.227C229.239 179.867 229.395 179.473 229.52 179.043C229.645 178.613 229.708 178.125 229.708 177.578V175.152H232.544ZM238.286 170.23L235.591 169.586L236.563 160.938H246.149V163.668H239.341L238.919 167.453C239.145 167.32 239.489 167.18 239.95 167.031C240.411 166.875 240.927 166.797 241.497 166.797C242.325 166.797 243.059 166.926 243.7 167.184C244.341 167.441 244.884 167.816 245.329 168.309C245.782 168.801 246.126 169.402 246.36 170.113C246.594 170.824 246.712 171.629 246.712 172.527C246.712 173.285 246.594 174.008 246.36 174.695C246.126 175.375 245.77 175.984 245.294 176.523C244.817 177.055 244.219 177.473 243.501 177.777C242.782 178.082 241.93 178.234 240.946 178.234C240.212 178.234 239.501 178.125 238.813 177.906C238.134 177.688 237.52 177.363 236.973 176.934C236.434 176.504 236.001 175.984 235.673 175.375C235.352 174.758 235.184 174.055 235.169 173.266H238.52C238.567 173.75 238.692 174.168 238.895 174.52C239.106 174.863 239.384 175.129 239.727 175.316C240.071 175.504 240.473 175.598 240.934 175.598C241.364 175.598 241.731 175.516 242.036 175.352C242.341 175.188 242.587 174.961 242.774 174.672C242.962 174.375 243.098 174.031 243.184 173.641C243.278 173.242 243.325 172.812 243.325 172.352C243.325 171.891 243.27 171.473 243.161 171.098C243.052 170.723 242.884 170.398 242.657 170.125C242.43 169.852 242.141 169.641 241.79 169.492C241.446 169.344 241.044 169.27 240.583 169.27C239.958 169.27 239.473 169.367 239.13 169.562C238.794 169.758 238.512 169.98 238.286 170.23ZM260.387 173.324C260.387 174.395 260.137 175.297 259.637 176.031C259.137 176.758 258.45 177.309 257.575 177.684C256.708 178.051 255.723 178.234 254.622 178.234C253.52 178.234 252.532 178.051 251.657 177.684C250.782 177.309 250.091 176.758 249.583 176.031C249.075 175.297 248.821 174.395 248.821 173.324C248.821 172.605 248.966 171.957 249.255 171.379C249.544 170.793 249.946 170.293 250.462 169.879C250.985 169.457 251.598 169.137 252.302 168.918C253.005 168.691 253.77 168.578 254.598 168.578C255.708 168.578 256.7 168.773 257.575 169.164C258.45 169.555 259.137 170.105 259.637 170.816C260.137 171.527 260.387 172.363 260.387 173.324ZM256.989 173.102C256.989 172.578 256.887 172.129 256.684 171.754C256.489 171.371 256.212 171.078 255.852 170.875C255.493 170.672 255.075 170.57 254.598 170.57C254.122 170.57 253.704 170.672 253.344 170.875C252.985 171.078 252.704 171.371 252.501 171.754C252.305 172.129 252.208 172.578 252.208 173.102C252.208 173.617 252.305 174.062 252.501 174.438C252.704 174.812 252.985 175.102 253.344 175.305C253.712 175.5 254.137 175.598 254.622 175.598C255.106 175.598 255.524 175.5 255.876 175.305C256.235 175.102 256.509 174.812 256.696 174.438C256.891 174.062 256.989 173.617 256.989 173.102ZM260.024 165.461C260.024 166.328 259.794 167.098 259.333 167.77C258.872 168.434 258.231 168.953 257.411 169.328C256.598 169.703 255.669 169.891 254.622 169.891C253.567 169.891 252.63 169.703 251.809 169.328C250.989 168.953 250.348 168.434 249.887 167.77C249.427 167.098 249.196 166.328 249.196 165.461C249.196 164.43 249.427 163.562 249.887 162.859C250.356 162.148 250.997 161.609 251.809 161.242C252.63 160.875 253.559 160.691 254.598 160.691C255.653 160.691 256.587 160.875 257.399 161.242C258.219 161.609 258.86 162.148 259.321 162.859C259.79 163.562 260.024 164.43 260.024 165.461ZM256.649 165.613C256.649 165.152 256.567 164.754 256.403 164.418C256.239 164.074 256.005 163.809 255.7 163.621C255.403 163.434 255.036 163.34 254.598 163.34C254.177 163.34 253.813 163.43 253.509 163.609C253.212 163.789 252.981 164.051 252.817 164.395C252.661 164.73 252.583 165.137 252.583 165.613C252.583 166.074 252.661 166.48 252.817 166.832C252.981 167.176 253.216 167.445 253.52 167.641C253.825 167.836 254.192 167.934 254.622 167.934C255.052 167.934 255.415 167.836 255.712 167.641C256.016 167.445 256.247 167.176 256.403 166.832C256.567 166.48 256.649 166.074 256.649 165.613ZM266.13 168.004H267.934C268.512 168.004 268.989 167.906 269.364 167.711C269.739 167.508 270.016 167.227 270.196 166.867C270.384 166.5 270.477 166.074 270.477 165.59C270.477 165.152 270.391 164.766 270.219 164.43C270.055 164.086 269.802 163.82 269.458 163.633C269.114 163.438 268.68 163.34 268.157 163.34C267.743 163.34 267.36 163.422 267.009 163.586C266.657 163.75 266.376 163.98 266.165 164.277C265.954 164.574 265.848 164.934 265.848 165.355H262.462C262.462 164.418 262.712 163.602 263.212 162.906C263.719 162.211 264.399 161.668 265.251 161.277C266.102 160.887 267.04 160.691 268.063 160.691C269.219 160.691 270.231 160.879 271.098 161.254C271.966 161.621 272.641 162.164 273.126 162.883C273.61 163.602 273.852 164.492 273.852 165.555C273.852 166.094 273.727 166.617 273.477 167.125C273.227 167.625 272.868 168.078 272.399 168.484C271.938 168.883 271.376 169.203 270.712 169.445C270.048 169.68 269.302 169.797 268.473 169.797H266.13V168.004ZM266.13 170.57V168.824H268.473C269.403 168.824 270.219 168.93 270.923 169.141C271.626 169.352 272.216 169.656 272.692 170.055C273.169 170.445 273.528 170.91 273.77 171.449C274.012 171.98 274.134 172.57 274.134 173.219C274.134 174.016 273.981 174.727 273.677 175.352C273.372 175.969 272.942 176.492 272.387 176.922C271.841 177.352 271.2 177.68 270.466 177.906C269.731 178.125 268.93 178.234 268.063 178.234C267.344 178.234 266.637 178.137 265.942 177.941C265.255 177.738 264.63 177.438 264.067 177.039C263.512 176.633 263.067 176.125 262.731 175.516C262.403 174.898 262.239 174.168 262.239 173.324H265.626C265.626 173.762 265.735 174.152 265.954 174.496C266.173 174.84 266.473 175.109 266.856 175.305C267.247 175.5 267.68 175.598 268.157 175.598C268.696 175.598 269.157 175.5 269.54 175.305C269.93 175.102 270.227 174.82 270.43 174.461C270.641 174.094 270.747 173.668 270.747 173.184C270.747 172.559 270.634 172.059 270.407 171.684C270.18 171.301 269.856 171.02 269.434 170.84C269.012 170.66 268.512 170.57 267.934 170.57H266.13ZM279.794 175.152L279.782 177.414C279.782 178.281 279.563 179.156 279.126 180.039C278.696 180.922 278.149 181.645 277.485 182.207L275.727 181.305C275.923 180.945 276.114 180.586 276.302 180.227C276.489 179.867 276.645 179.473 276.77 179.043C276.895 178.613 276.958 178.125 276.958 177.578V175.152H279.794ZM291.067 160.762H291.559V163.457H291.36C290.469 163.457 289.677 163.59 288.981 163.855C288.286 164.121 287.696 164.5 287.212 164.992C286.735 165.477 286.368 166.062 286.11 166.75C285.86 167.438 285.735 168.207 285.735 169.059V171.895C285.735 172.504 285.794 173.043 285.911 173.512C286.036 173.973 286.212 174.359 286.438 174.672C286.673 174.977 286.946 175.207 287.259 175.363C287.571 175.512 287.923 175.586 288.313 175.586C288.68 175.586 289.012 175.508 289.309 175.352C289.614 175.195 289.872 174.977 290.083 174.695C290.302 174.406 290.466 174.07 290.575 173.688C290.692 173.297 290.751 172.871 290.751 172.41C290.751 171.949 290.692 171.523 290.575 171.133C290.466 170.742 290.302 170.406 290.083 170.125C289.864 169.836 289.598 169.613 289.286 169.457C288.973 169.301 288.622 169.223 288.231 169.223C287.7 169.223 287.231 169.348 286.825 169.598C286.427 169.84 286.114 170.152 285.887 170.535C285.661 170.918 285.54 171.32 285.524 171.742L284.505 171.086C284.528 170.484 284.653 169.914 284.88 169.375C285.114 168.836 285.434 168.359 285.841 167.945C286.255 167.523 286.751 167.195 287.329 166.961C287.907 166.719 288.559 166.598 289.286 166.598C290.083 166.598 290.782 166.75 291.384 167.055C291.993 167.359 292.501 167.777 292.907 168.309C293.313 168.84 293.618 169.453 293.821 170.148C294.024 170.844 294.126 171.586 294.126 172.375C294.126 173.203 293.989 173.973 293.716 174.684C293.45 175.395 293.063 176.016 292.555 176.547C292.055 177.078 291.454 177.492 290.751 177.789C290.048 178.086 289.259 178.234 288.384 178.234C287.477 178.234 286.653 178.07 285.911 177.742C285.177 177.406 284.544 176.938 284.012 176.336C283.481 175.734 283.071 175.02 282.782 174.191C282.501 173.363 282.36 172.457 282.36 171.473V170.16C282.36 168.785 282.559 167.527 282.958 166.387C283.364 165.238 283.946 164.246 284.704 163.41C285.462 162.566 286.376 161.914 287.446 161.453C288.516 160.992 289.723 160.762 291.067 160.762ZM307.731 160.938V162.754L301.134 178H297.571L304.169 163.574H295.673V160.938H307.731ZM321.594 175.363V178H309.923V175.75L315.442 169.832C315.997 169.215 316.434 168.672 316.755 168.203C317.075 167.727 317.305 167.301 317.446 166.926C317.594 166.543 317.669 166.18 317.669 165.836C317.669 165.32 317.583 164.879 317.411 164.512C317.239 164.137 316.985 163.848 316.649 163.645C316.321 163.441 315.915 163.34 315.43 163.34C314.915 163.34 314.469 163.465 314.094 163.715C313.727 163.965 313.446 164.312 313.251 164.758C313.063 165.203 312.969 165.707 312.969 166.27H309.583C309.583 165.254 309.825 164.324 310.309 163.48C310.794 162.629 311.477 161.953 312.36 161.453C313.243 160.945 314.29 160.691 315.501 160.691C316.696 160.691 317.704 160.887 318.524 161.277C319.352 161.66 319.977 162.215 320.399 162.941C320.829 163.66 321.044 164.52 321.044 165.52C321.044 166.082 320.954 166.633 320.774 167.172C320.594 167.703 320.337 168.234 320.001 168.766C319.673 169.289 319.274 169.82 318.805 170.359C318.337 170.898 317.817 171.457 317.247 172.035L314.282 175.363H321.594Z" fill="url(#paint13_linear_1145_33320)"/>
<defs>
<linearGradient id="paint0_linear_1145_33320" x1="360" y1="200" x2="190.189" y2="-105.66" gradientUnits="userSpaceOnUse">
<stop stop-color="#0059B3"/>
<stop offset="1" stop-color="#007FFF"/>
</linearGradient>
<linearGradient id="paint1_linear_1145_33320" x1="32" y1="10" x2="32" y2="190" gradientUnits="userSpaceOnUse">
<stop stop-color="white"/>
<stop offset="1" stop-color="#F3F6F9"/>
</linearGradient>
<linearGradient id="paint2_linear_1145_33320" x1="95" y1="10" x2="95" y2="30" gradientUnits="userSpaceOnUse">
<stop stop-color="white"/>
<stop offset="1" stop-color="#F3F6F9"/>
</linearGradient>
<linearGradient id="paint3_linear_1145_33320" x1="169" y1="10" x2="169" y2="30" gradientUnits="userSpaceOnUse">
<stop stop-color="white"/>
<stop offset="1" stop-color="#F3F6F9"/>
</linearGradient>
<linearGradient id="paint4_linear_1145_33320" x1="243" y1="10" x2="243" y2="30" gradientUnits="userSpaceOnUse">
<stop stop-color="white"/>
<stop offset="1" stop-color="#F3F6F9"/>
</linearGradient>
<linearGradient id="paint5_linear_1145_33320" x1="317" y1="10" x2="317" y2="30" gradientUnits="userSpaceOnUse">
<stop stop-color="white"/>
<stop offset="1" stop-color="#F3F6F9"/>
</linearGradient>
<linearGradient id="paint6_linear_1145_33320" x1="150.5" y1="38" x2="150.5" y2="127" gradientUnits="userSpaceOnUse">
<stop stop-color="white"/>
<stop offset="1" stop-color="#F3F6F9"/>
</linearGradient>
<linearGradient id="paint7_linear_1145_33320" x1="298.5" y1="38" x2="298.5" y2="127" gradientUnits="userSpaceOnUse">
<stop stop-color="white"/>
<stop offset="1" stop-color="#F3F6F9"/>
</linearGradient>
<linearGradient id="paint8_linear_1145_33320" x1="113.5" y1="135" x2="113.5" y2="190" gradientUnits="userSpaceOnUse">
<stop stop-color="white"/>
<stop offset="1" stop-color="#F3F6F9"/>
</linearGradient>
<linearGradient id="paint9_linear_1145_33320" x1="147.432" y1="151" x2="147.408" y2="149" gradientUnits="userSpaceOnUse">
<stop stop-color="#0059B3"/>
<stop offset="1" stop-color="#007FFF"/>
</linearGradient>
<linearGradient id="paint10_linear_1145_33320" x1="103.865" y1="166" x2="103.811" y2="164.001" gradientUnits="userSpaceOnUse">
<stop stop-color="#0059B3"/>
<stop offset="1" stop-color="#007FFF"/>
</linearGradient>
<linearGradient id="paint11_linear_1145_33320" x1="126.486" y1="181" x2="126.453" y2="179.001" gradientUnits="userSpaceOnUse">
<stop stop-color="#0059B3"/>
<stop offset="1" stop-color="#007FFF"/>
</linearGradient>
<linearGradient id="paint12_linear_1145_33320" x1="261.5" y1="135" x2="261.5" y2="190" gradientUnits="userSpaceOnUse">
<stop stop-color="white"/>
<stop offset="1" stop-color="#F3F6F9"/>
</linearGradient>
<linearGradient id="paint13_linear_1145_33320" x1="336.835" y1="182" x2="329.379" y2="135.188" gradientUnits="userSpaceOnUse">
<stop stop-color="#0059B3"/>
<stop offset="1" stop-color="#007FFF"/>
</linearGradient>
</defs>
</svg>
